<?xml version="1.0" encoding="UTF-8"?>
<svg id="design" xmlns="http://www.w3.org/2000/svg" viewBox="0 0 485.05 470.98">
  <defs>
    <style>
      .cls-1 {
        stroke: #fff;
      }

      .cls-1, .cls-2 {
        fill: none;
        stroke-miterlimit: 10;
      }

      .cls-3 {
        fill: #f2f2f2;
      }

      .cls-2 {
        stroke: #f2f2f2;
        stroke-width: 2px;
      }
    </style>
  </defs>
  <g>
    <path class="cls-1" d="M65.42,275.2c-18.27,2.65-28.26-9.87-28.26-9.87-18.78-23.7,8.82-35.11,8.82-35.11,88.31-52.21,203.5-46,203.5-46,51.88.1,115.29,19.34,115.29,19.34,0,0,55.64,17.49,79.02,35.99,0,0,20.94,8.72,17.1,26.52,0,0-1.05,13.26-16.05,17.1,0,0-10.8,3.49-25.64-2.96"/>
    <path class="cls-1" d="M65.42,275.2s9.61-.26,17.35-6.89c0,0,43.11-25.53,101.83-32.9,0,0,61.27-11.35,125.09,1.99,0,0,66.72,11.02,109.52,42.81"/>
  </g>
  <g id="ob">
    <path class="cls-2" d="M402.17,277.58s-53.34-27.59-71.27-27.59c0,0,32.19,77.71,72.19,93.34,0,0,28.05,9.2,13.33,28.51l-5.98,45.98s-4.14,23.91-16.55,22.99c0,0-14.71,5.98-12.42-12.88l.46-10.58s-84.15-86.91-88.29-100.7c0,0-9.66-15.63-10.12,3.22,0,0,5.98,18.39-6.9,31.73,0,0-17.93,22.99,0,68.51,0,0-11.5,11.04-.92,15.17,0,0,11.96,8.74-5.98,8.28,0,0-28.05,4.6-35.87-8.28l-4.6,9.2-45.52-.92s-12.42-5.06-11.5-8.28,16.55-16.09,20.69-17.93l3.68-64.84s10.12-15.17-15.63-11.96c0,0-44.14,10.12-68.05,5.52,0,0-45.06,18.39-45.06,15.17,0,0-11.04,10.12-11.04,12.88,0,0-14.25.92-9.2-19.31l5.52-7.82s5.52-4.6-4.14-9.2c0,0,22.53-11.96,25.75-11.5,0,0,7.36-1.84,9.2,4.6l17.93.92s11.96-3.68,17.47-6.9c0,0,33.57-17.01,63-17.47,0,0,11.5-15.17,8.28-32.65l-11.82-31.94c-62.91,12.49-91.83,31.36-97.57,34.85s-16.11,4.63-16.11,4.63c-26.96,3.52-39.59-18.58-39.59-18.58,0,0-12.58-28.02,17.02-40.62,0,0,72.68-40.74,151.81-43.67,0,0,3.83-6.99-1.46-19.17,0,0-16.55-21.15-18.39-25.75,0,0-1.84-25.75-9.66-14.25,0,0-18.38,1.24-19.03-4.31l.65-3.59s-18.28,4.57-16-19.26c0,0,5.22-21.88,13.06-23.18l2.94,1.63.98-4.57s5.88-4.57,9.79-.65c0,0,5.22-5.55,14.04,1.31l1.28,1.44s4.32.74,6.66,4.81c0,0,.86.86,2.47-.62,0,0-.74,2.1-.62,2.84,0,0,2.71,3.08,7.15,2.96,0,0,1.48.86.12,2.71,0,0-1.97,2.1.12,3.45,0,0,2.22,0,1.85,2.22,0,0,1.11-.12,1.11.25,0,0-1.11,1.6,2.22,5.43,0,0,2.71,1.48-1.73,4.19,0,0-7.4,2.47-.37,7.52,0,0,8.14,2.84,15.17,1.73,0,0,7.89,1.6,7.65-4.07l.12-5.67s-8.01-1.6-9.12-1.36c0,0-2.96-1.6-1.73-4.19,0,0,.12-2.47-1.23-2.47,0,0-2.47-2.22-.25-3.33,0,0-3.58.25-2.34-3.08,0,0-1.36-2.96-5.8-2.96,0,0-2.84-1.11-.86-4.19l3.33-7.03s.99-2.59-1.23-4.19c0,0-15.19-16.32,1.84-21.04,0,0,10.06-17.89,36.73-7.32,0,0,31.27,3.68,19.31,37.25,0,0-3.22,4.14,7.36,6.44,0,0,89.21,3.22,120.47,30.81,0,0,11.96,4.14,8.74,14.71,0,0,12.42-1.38,33.57,22.99,0,0,7.82,28.51-7.82,17.01l-8.74-.92s-1.84-7.36-13.79-16.09c0,0-11.5-11.96-8.28-13.33,0,0-5.98,5.52-9.2,4.14,0,0-21.15-12.42-35.41-14.71,0,0-35.87-4.6-35.87-6.44,0,0,30.35,21.61,30.81,31.73,0,0,4.6,11.96-14.71,5.98,0,0,16.55,27.59,12.42,32.65,0,0,62.21,12.55,105.48,40.12,0,0,21.64,9.42,27.22,23.03,0,0,8.03,14.66-3.49,28.96,0,0-14.66,19.89-42.57,6.98"/>
    <path class="cls-2" d="M419.37,287s-11.38-5.59-17.2-9.42"/>
  </g>
  <g>
    <path class="cls-3" d="M52.45,253.09c-1.51.83-2.47,1.43-3.48,2.18-.86-1.57-1.73-3.14-2.59-4.71.97-.4,2.51-1.14,3.75-1.81.29-.16.59-.32.88-.48-.24-.44-.47-.88-.71-1.33-1.99-3.72-.43-6.83,5.03-9.65,1.87-.96,3.34-1.49,5.39-1.97.34,1.58.68,3.16,1.03,4.74-1.27.03-2.38.3-3.64.94-1.62.83-1.96,1.73-1.2,3.21.12.24.24.47.36.71.32-.16.63-.33.95-.49,1.38-.71,3.11-1.7,4.27-2.43.79,1.61,1.58,3.22,2.37,4.82-1.44.54-2.54,1.03-4.35,1.96-.34.17-.67.35-1,.52,1.48,2.9,2.96,5.79,4.45,8.69,1.01,1.97,1.55,2.87,2.46,4.17-2.16,1.12-4.32,2.27-6.47,3.44-.56-1.48-1.05-2.56-2.03-4.39-1.54-2.87-3.07-5.74-4.6-8.61-.29.16-.58.31-.87.47Z"/>
    <path class="cls-3" d="M75.42,243.35c-2.16.77-4.32,1.57-6.47,2.38-.23-1.07-.25-1.99-.07-2.76.18-.76.6-1.55,1.24-2.36.46-.58,1.19-1.2,2.17-1.86.98-.66,2.09-1.27,3.33-1.84,1.98-.91,3.62-1.52,4.91-1.86,1.29-.34,2.47-.36,3.54-.09.75.19,1.45.61,2.11,1.26.66.65,1.13,1.34,1.44,2.06.94,2.25,1.89,4.51,2.83,6.76.3.72.59,1.26.86,1.63.27.37.71.79,1.31,1.29-2,.85-3.99,1.71-5.98,2.59-.41-.28-.7-.51-.86-.69-.16-.17-.38-.46-.64-.87-.51,1.11-1.11,2-1.79,2.69-.93.93-2.14,1.73-3.62,2.43-1.96.92-3.64,1.22-5.05.89-1.41-.33-2.41-1.1-3-2.31-.55-1.13-.63-2.25-.23-3.35.39-1.09,1.52-2.31,3.37-3.62,2.22-1.58,3.67-2.6,4.31-3.11.65-.51,1.31-1.08,2-1.73-.31-.72-.7-1.14-1.16-1.28-.46-.14-1.11-.02-1.95.37-1.07.49-1.81,1.01-2.21,1.56-.31.43-.44,1.03-.4,1.81ZM82.42,243.83c-.77.68-1.58,1.36-2.44,2.01-1.17.91-1.85,1.61-2.06,2.07-.21.48-.23.92-.05,1.31.21.45.56.74,1.04.87.48.13,1.06.03,1.74-.28.71-.33,1.3-.79,1.77-1.38.47-.59.74-1.17.8-1.74.06-.57-.07-1.21-.39-1.94-.14-.31-.27-.62-.41-.93Z"/>
    <path class="cls-3" d="M96.71,248.11c-.36-1.44-.8-2.72-1.56-4.58-1.23-3.05-2.46-6.09-3.69-9.14-.91-2.25-1.41-3.3-2.07-4.37,2.23-.92,4.46-1.81,6.7-2.69.16.42.32.84.48,1.26q.05.12.13.43s.02.06.06.15c.01.03.03.09.06.15,1.08-2.34,2.87-3.93,5.56-4.93,1.77-.66,3.37-.83,4.75-.5.75.17,1.22.42,1.92,1.01,1.47-2.59,3.3-4.11,6.3-5.1,4.93-1.63,8.18,0,9.57,4.62.77,2.53,1.54,5.06,2.31,7.59.58,1.9,1.03,3.13,1.67,4.51-2.27.7-4.54,1.43-6.81,2.18-.27-1.5-.56-2.61-1.23-4.68-.68-2.09-1.36-4.18-2.03-6.27-.74-2.28-1.77-2.92-3.7-2.27-1.73.58-2.88,2.34-3.02,4.66.71,2.06,1.42,4.12,2.12,6.17.63,1.82,1.13,3.06,1.83,4.45-2.26.79-4.51,1.6-6.75,2.43-.3-1.43-.7-2.71-1.4-4.64-.75-2.06-1.5-4.13-2.25-6.2-.46-1.26-.8-1.78-1.42-2.13-.54-.35-1.32-.36-2.12-.06-1.82.68-2.92,2.45-3.07,4.85.77,2.01,1.55,4.02,2.32,6.03.72,1.88,1.24,3.02,2,4.41-2.21.86-4.42,1.75-6.63,2.66Z"/>
    <path class="cls-3" d="M134.73,214.47c.13,1.32.4,2.58.99,4.74.86,3.17,1.72,6.34,2.59,9.51.45,1.67,1.01,3.31,1.54,4.59-2.3.64-4.59,1.29-6.88,1.98-.24-1.56-.52-2.75-1.09-4.72-.92-3.15-1.84-6.31-2.75-9.47-.58-2-1.01-3.24-1.62-4.56,2.41-.72,4.82-1.41,7.24-2.08ZM132.78,207.64c.42,1.55.83,3.09,1.25,4.64-2.36.65-4.72,1.33-7.07,2.03-.44-1.54-.89-3.07-1.33-4.61,2.38-.71,4.77-1.39,7.16-2.05Z"/>
    <path class="cls-3" d="M144.75,204.52c.1,1.36.33,2.65.83,4.77,1.31,5.5,2.63,11,3.95,16.5.45,1.87.8,3.03,1.4,4.63-2.31.56-4.62,1.15-6.92,1.76-.17-1.45-.37-2.52-.95-4.75-1.42-5.47-2.83-10.95-4.23-16.42-.56-2.2-.97-3.49-1.48-4.61,2.46-.65,4.93-1.28,7.41-1.88Z"/>
    <path class="cls-3" d="M152.18,214.46c-2.19-2.78-2.41-3.02-3.04-3.69,2.53-.6,5.05-1.17,7.59-1.72.38.96,1.12,2.21,2.2,3.75,1.56,2.19,3.11,4.38,4.63,6.59.54-2.58,1.1-5.16,1.67-7.74.56-2.36.71-3.33.72-4.47,2.54-.49,5.08-.95,7.63-1.38q-.61,1.79-1.39,4.59c-1.7,6.03-3.28,12.07-4.74,18.11-.75,3.22-2.84,5.03-6.57,5.85-1.44.32-2.72.44-4.6.48-.14-1.71-.28-3.42-.41-5.13,1.22.28,1.88.29,2.74.1,1.26-.28,2.07-1.01,2.38-2.06.14-.5.28-1,.42-1.5-3.01-3.96-6.09-7.89-9.23-11.78Z"/>
    <path class="cls-3" d="M198.51,200.02c-.02-1.25-.13-3.11-.23-4.1-.07-.67-.09-.92-.27-1.58,2.27-.19,4.53-.35,6.8-.5-.12.75-.11.85-.08,3.89q.04.86.03,1.64c2.59-.23,5.17-.44,7.76-.62,1.18-.08,1.6-.17,2.37-.51.97.66,1.93,1.33,2.89,2-.36.66-.41.92-.37,2.39.11,6.85-.1,12.22-.65,14.37-.81,3.04-2.35,4.15-6.08,4.44-1.31.11-1.82.11-4.42.12-.36-2.54-.69-3.57-1.65-5.5,1.74.25,3.43.33,4.49.25,1.64-.13,2-.67,2.25-3.48.19-2.16.22-6.21.04-8.96-2.24.17-4.48.35-6.72.55q-.1,2.13-.25,3.24c-.96,6.59-3.85,11.01-10.14,16.09-1.78-2.07-2.93-3.02-4.99-4.26,4.22-2.83,6.6-5.38,7.99-8.79.69-1.72.96-2.91,1.17-5.63-1.46.16-2.93.32-4.39.5-2.35.28-3.08.41-4.71.78-.24-1.81-.48-3.62-.71-5.43,1.8,0,2.45-.06,4.97-.36,1.64-.19,3.27-.38,4.91-.55Z"/>
    <path class="cls-3" d="M224.44,201.11c1.6.13,2.73.15,5.7.07,5.91-.15,11.83-.17,17.73-.06,1.69.03,1.94.01,2.83-.29.89.92,1.77,1.84,2.65,2.77-.44.56-.52.69-1.05,1.98-1.98,4.71-4.55,8.23-7.91,10.82-2.6,2.03-5.04,3.25-9.62,5.01-.9-1.87-1.86-3.17-3.87-5.17,4.06-1.09,6.51-2.13,8.98-3.86,2.51-1.73,4.05-3.54,5.39-6.37-5.03-.06-10.07-.03-15.1.1-2.76.08-3.35.13-5.54.38-.06-1.79-.13-3.58-.19-5.37ZM227.16,193.01c1.41.15,2.75.17,5.31.12,3.83-.08,7.67-.1,11.5-.06,2.85.03,4.4,0,5.66-.17-.05,1.79-.1,3.58-.16,5.37-1.35-.13-3.02-.22-5.47-.25-3.84-.03-7.69-.01-11.53.06-2.81.06-3.6.12-5.16.3-.05-1.79-.1-3.58-.14-5.37Z"/>
    <path class="cls-3" d="M269.35,203.64c-1.9-.1-3.81-.19-5.71-.27-.09-.11-.18-.21-.27-.32.1-1.62.21-3.24.31-4.85.13-.07.26-.14.4-.21,1.91.15,3.82.32,5.73.5,3.27.24,6.54.53,9.81.85.16-1.91.32-3.81.47-5.72.11-.08.22-.16.33-.23,2.03.2,4.07.42,6.1.65.1.1.21.2.31.3-.19,1.9-.38,3.81-.57,5.71.77.09,1.54.18,2.31.27,2,.21,4.01.43,6.01.66.11.09.23.19.34.28-.23,1.6-.46,3.21-.69,4.81-.11.09-.22.17-.33.26-2-.31-4.01-.61-6.02-.9-.72-.09-1.44-.17-2.15-.26-.48,4.79-.96,9.58-1.44,14.37-.3,2.85-1.63,4.86-8.62,4.36-.98-.09-1.02-.13-1.28-.81-.67-1.77-1.35-3.53-2.05-5.29,2.44.21,3.85.31,5.02.34.4,0,.71-.24.8-1.14.18-1.85.36-3.71.54-5.56.15-.94.31-1.88.46-2.82-4.94,4.69-10.7,8.34-15.33,10.53-.62.3-.9.33-1.32-.04-1.31-1.23-2.64-2.46-3.98-3.67,6.81-3.32,12.26-6.79,16.83-11.34-1.99-.18-3.99-.34-5.99-.49Z"/>
    <path class="cls-3" d="M323.85,211.72c-1.36,4.16-2.33,6.14-3.98,8.25-1.87,2.32-4.29,4.07-7.34,5.4-1.84.78-3.25,1.2-5.98,1.78-.76-2.54-1.33-3.59-3-5.66,5.36-.78,8.74-2.23,11.04-4.88,1.33-1.53,2.19-3.29,3.03-6.18-2.34-.47-4.69-.92-7.03-1.35-2.58,2.56-3.81,3.54-6.56,5.19-1.21-1.76-2.2-2.77-4.42-4.34,3.76-2.08,6.31-4.21,8.73-7.43,1.32-1.72,2.02-2.9,2.53-4.3,2.1.79,4.2,1.59,6.29,2.41-.45.6-.65.85-1.26,1.74q-.61.89-1.63,2.17c4.42.84,8.82,1.75,13.2,2.73,2.64.6,3.61.79,5.53,1.05-.44,1.8-.89,3.6-1.33,5.41-1.57-.51-3-.91-5.4-1.45-.81-.18-1.62-.36-2.43-.54Z"/>
    <path class="cls-3" d="M355.07,224.13c1.61.89,3.22,1.78,4.81,2.69-.56.78-1.04,1.4-1.46,1.84-.42.45-.97.95-1.65,1.52.65.78,1.29,1.56,1.93,2.35.24.27.55.61.93,1.01-1.57.86-3.14,1.73-4.69,2.62-.53-.52-1.06-1.09-1.61-1.72-.55-.63-1.05-1.18-1.49-1.64-1.34.35-2.61.52-3.83.51-1.68-.02-3.51-.32-5.49-.88-3.1-.87-5.25-2.1-6.45-3.73-1.2-1.63-1.59-3.32-1.14-5.07.33-1.26,1.09-2.34,2.31-3.22,1.21-.89,2.97-1.44,5.29-1.65-.61-1.21-.98-2.22-1.12-3.03-.14-.81-.11-1.58.1-2.33.42-1.57,1.44-2.69,3.06-3.34,1.62-.65,3.8-.6,6.52.18,2.77.8,4.66,1.89,5.66,3.24.99,1.35,1.27,2.69.85,4.02-.24.74-.66,1.4-1.26,1.96-.6.57-1.25.98-1.93,1.24-.68.26-1.86.6-3.52,1.03.84,1.41,1.75,2.77,2.72,4.07.53-.51,1.02-1.08,1.47-1.69ZM344.65,222.67c-1.08.34-1.83.68-2.24,1.02-.42.34-.69.75-.82,1.22-.2.73-.04,1.48.47,2.24.52.76,1.31,1.29,2.39,1.6,1.17.33,2.6.28,4.31-.13-1.09-1.41-2.45-3.39-4.1-5.93ZM348.57,218c1-.18,1.81-.45,2.43-.81.63-.36,1.01-.77,1.14-1.22.14-.47.06-.92-.24-1.37-.3-.44-.8-.77-1.51-.97-.69-.2-1.31-.18-1.84.06-.54.24-.88.6-1.02,1.09-.18.62.17,1.69,1.04,3.22Z"/>
    <path class="cls-3" d="M364.44,240.74c.66-1.26,1.21-2.59,1.84-4.37,1.93-5.44,3.88-10.87,5.83-16.3.58-1.63,1-3.01,1.31-4.49,1.58.63,2.8,1.09,4.97,1.89,2.48.91,4.95,1.84,7.42,2.8,6.7,2.62,9.13,6.99,6.92,12.09-2.26,5.24-7.22,6.78-13.46,4.35-1.7-.66-3.4-1.31-5.11-1.94-.48,1.28-.96,2.56-1.44,3.83-.66,1.77-1.12,3.27-1.45,4.62-2.27-.85-4.54-1.67-6.83-2.47ZM380.97,231.53c2.29.89,4.09.27,4.93-1.78.83-2.04-.03-3.63-2.43-4.57-1.65-.64-3.31-1.27-4.97-1.89-.81,2.12-1.61,4.25-2.41,6.37,1.63.61,3.26,1.23,4.89,1.86Z"/>
    <path class="cls-3" d="M425.59,238.31c-.84,1.11-1.44,2.1-2.52,4.14-1.71,3.24-3.43,6.49-5.14,9.74-3.43,6.45-9.46,7.9-16.8,4.39-3.79-1.81-6.44-4.23-7.49-6.9-.99-2.61-.83-5.57.62-8.85,1.47-3.34,2.95-6.67,4.43-10.01.89-2.02,1.4-3.33,1.69-4.53,2.4,1.04,4.79,2.11,7.17,3.2-.7.98-1.31,2.11-2.3,4.26-1.55,3.33-3.09,6.66-4.64,9.98-1.69,3.66-.71,6.21,2.92,7.94,3.72,1.78,6.33.95,8.15-2.65,1.65-3.28,3.3-6.55,4.96-9.83,1.08-2.14,1.46-3.06,1.92-4.44,2.35,1.17,4.69,2.36,7.02,3.58Z"/>
    <path class="cls-3" d="M422.48,266.87c-2.27-1.26-3.16-1.7-4.48-2.35.84-1.11,1.42-2.03,2.49-4,2.8-5.12,5.6-10.24,8.41-15.35.82-1.49,1.42-2.73,1.96-4.18,1.59.98,2.05,1.22,4.67,2.68,2.79,1.56,5.57,3.15,8.33,4.78,5.13,3.03,6.76,7.02,4.49,10.58-1.04,1.65-2.47,2.57-4.21,2.78-.99.1-1.71.04-3.21-.31,1.31,1.2,1.89,2.01,2.35,3.23.65,1.83.38,3.71-.75,5.49-2.48,3.89-6.89,4.31-12.01,1.28-2.67-1.58-5.37-3.12-8.07-4.63ZM426.76,263.22c1.85,1.05,3.7,2.11,5.54,3.19,1.88,1.11,3.6.83,4.58-.78.96-1.58.38-3.21-1.57-4.35-1.86-1.09-3.72-2.16-5.59-3.22-.98,1.72-1.97,3.45-2.95,5.17ZM437.71,256.74c1.63.96,3.16.72,3.98-.62.81-1.34.31-2.69-1.47-3.73-1.81-1.06-3.63-2.11-5.46-3.14-.83,1.45-1.67,2.91-2.5,4.36,1.82,1.03,3.64,2.08,5.45,3.14Z"/>
  </g>
  <path class="cls-2" d="M194.4,179.5s74.86-8.99,138.33,8.42"/>
  <path class="cls-2" d="M178.83,242.88c94.42-15.74,152.06,7.11,152.06,7.11"/>
</svg>